<?xml version="1.0" encoding="UTF-8"?>
<svg id="Layer_4" data-name="Layer 4" xmlns="http://www.w3.org/2000/svg" viewBox="0 0 5000 5000">
  <defs>
    <style>
      .cls-1 {
        fill: #fff;
      }

      .cls-2 {
        fill: #ffc815;
      }
    </style>
  </defs>
  <path class="cls-1" d="M787.62,2505.35h-137.6l-166.4-156h-91.2v156h-94.4v-412.8h353.6c61.86,0,92.8,26.67,92.8,80v96.8c0,40-16,64.8-48,74.4-12.27,3.74-45.34,5.6-99.2,5.6l190.4,156Zm-136-259.2v-49.6c0-13.86-4-22.93-12-27.2-5.88-3.73-16.28-5.6-31.2-5.6h-216v115.2h216c14.92,0,25.33-1.86,31.2-5.6,8-4.26,12-13.33,12-27.2Z"/>
  <path class="cls-1" d="M1991.6,2407.76c0,38.4-7.47,64.27-22.4,77.6-14.94,13.34-41.88,20-80.8,20h-255.2c-42.14,0-69.88-7.46-83.2-22.4-13.34-14.93-20-43.73-20-86.4l84.8-17.6v48.8h292v-94.4h-257.6c-38.94,0-65.74-6.66-80.4-20-14.67-13.33-22-39.2-22-77.6v-45.6c0-38.4,7.33-64.26,22-77.6,14.66-13.33,41.46-20,80.4-20h234.4c39.46,0,66.4,6.8,80.8,20.4,14.4,13.6,21.6,39.88,21.6,78.8l-84.8,20v-47.2h-270.4v88.8h257.6c38.92,0,65.86,6.67,80.8,20,14.92,13.34,22.4,39.2,22.4,77.6v56.8Z"/>
  <path class="cls-1" d="M2656.4,2407.76c0,38.4-7.34,64.27-22,77.6-14.67,13.34-41.48,20-80.4,20h-260.8c-38.94,0-65.74-6.66-80.4-20-14.67-13.33-22-39.2-22-77.6v-315.2h96v335.2h273.6v-335.2h96v315.2Z"/>
  <path class="cls-1" d="M3405.99,2505.35h-88.8v-256.8c0-9.06,1.06-23.2,3.2-42.4-4.8,10.14-12.8,24.54-24,43.2l-155.2,206.4h-19.2l-155.2-207.2c-11.2-14.93-19.47-29.06-24.8-42.4,1.6,16.54,2.4,30.14,2.4,40.8v258.4h-77.6v-412.8h77.6l194.4,249.6,190.4-249.6h76.8v412.8Z"/>
  <path class="cls-1" d="M4034.79,2505.35h-426.4v-412.8h422.4v70.4h-326.4v92h190.4v70.4h-190.4v102.4h330.4v77.6Z"/>
  <path class="cls-1" d="M4701.98,2505.35h-137.6l-166.4-156h-91.2v156h-94.4v-412.8h353.6c61.86,0,92.8,26.67,92.8,80v96.8c0,40-16,64.8-48,74.4-12.28,3.74-45.34,5.6-99.2,5.6l190.4,156Zm-136-259.2v-49.6c0-13.86-4-22.93-12-27.2-5.88-3.73-16.28-5.6-31.2-5.6h-216v115.2h216c14.92,0,25.33-1.86,31.2-5.6,8-4.26,12-13.33,12-27.2Z"/>
  <rect class="cls-2" x="1055.67" y="2092.56" width="306.34" height="70.4"/>
  <rect class="cls-2" x="1055.67" y="2254.96" width="178.25" height="70.4"/>
  <rect class="cls-2" x="1055.67" y="2427.76" width="306.34" height="77.6"/>
  <rect class="cls-2" x="952.41" y="2092.56" width="70.4" height="70.4" rx="35.2" ry="35.2"/>
  <path class="cls-2" d="M982.41,2254.96h40.4v70.4h-40.4c-16.56,0-30-13.44-30-30v-10.4c0-16.56,13.44-30,30-30Z"/>
  <path class="cls-2" d="M952.41,2427.76h70.4v77.6h-40.4c-16.56,0-30-13.44-30-30v-47.6h0Z"/>
  <path class="cls-2" d="M2443.46,2098.77l-9.25,24.66h-23.16l-9.25-24.66c-1.13-3.01,1.1-6.22,4.31-6.22h33.04c3.21,0,5.44,3.21,4.31,6.22Z"/>
  <path class="cls-2" d="M2448.93,2366.38l-26.29,32.45-26.3-32.45c-.74-.91-1.1-2.08-1.01-3.25l15.73-216.03h23.16l15.73,216.03c.09,1.17-.27,2.34-1.01,3.25Z"/>
</svg>